<mxfile host="Electron" agent="Mozilla/5.0 (Windows NT 10.0; Win64; x64) AppleWebKit/537.36 (KHTML, like Gecko) draw.io/24.7.17 Chrome/128.0.6613.36 Electron/32.0.1 Safari/537.36" version="24.7.17">
  <diagram name="Page-1" id="tu4xxwA12uY9EScM3jGG">
    <mxGraphModel dx="1036" dy="606" grid="1" gridSize="10" guides="1" tooltips="1" connect="1" arrows="1" fold="1" page="1" pageScale="1" pageWidth="850" pageHeight="1100" math="0" shadow="0">
      <root>
        <mxCell id="0" />
        <mxCell id="1" parent="0" />
        <mxCell id="fpkG0rJU3OVmq5idl9VU-1" value="" style="rounded=1;whiteSpace=wrap;html=1;fillColor=#647687;strokeColor=#314354;fontColor=#ffffff;" parent="1" vertex="1">
          <mxGeometry x="127.5" y="80" width="1110" height="560" as="geometry" />
        </mxCell>
        <mxCell id="fpkG0rJU3OVmq5idl9VU-27" style="edgeStyle=orthogonalEdgeStyle;rounded=0;orthogonalLoop=1;jettySize=auto;html=1;exitX=0.5;exitY=1;exitDx=0;exitDy=0;entryX=0.5;entryY=0;entryDx=0;entryDy=0;strokeWidth=6;fillColor=none;strokeColor=#ffffff;" parent="1" source="fpkG0rJU3OVmq5idl9VU-2" target="fpkG0rJU3OVmq5idl9VU-4" edge="1">
          <mxGeometry relative="1" as="geometry" />
        </mxCell>
        <mxCell id="fpkG0rJU3OVmq5idl9VU-2" value="" style="rounded=0;whiteSpace=wrap;html=1;fillColor=#b0e3e6;strokeColor=#0e8088;" parent="1" vertex="1">
          <mxGeometry x="185" y="130" width="995" height="110" as="geometry" />
        </mxCell>
        <mxCell id="fpkG0rJU3OVmq5idl9VU-3" value="" style="rounded=0;whiteSpace=wrap;html=1;fillColor=#bac8d3;strokeColor=#23445d;" parent="1" vertex="1">
          <mxGeometry x="185" y="470" width="995" height="110" as="geometry" />
        </mxCell>
        <mxCell id="fpkG0rJU3OVmq5idl9VU-28" style="edgeStyle=orthogonalEdgeStyle;rounded=0;orthogonalLoop=1;jettySize=auto;html=1;exitX=0.5;exitY=1;exitDx=0;exitDy=0;entryX=0.5;entryY=0;entryDx=0;entryDy=0;strokeWidth=5;strokeColor=#ffffff;" parent="1" source="fpkG0rJU3OVmq5idl9VU-4" target="fpkG0rJU3OVmq5idl9VU-3" edge="1">
          <mxGeometry relative="1" as="geometry" />
        </mxCell>
        <mxCell id="fpkG0rJU3OVmq5idl9VU-4" value="" style="rounded=0;whiteSpace=wrap;html=1;fillColor=#b1ddf0;strokeColor=#10739e;" parent="1" vertex="1">
          <mxGeometry x="185" y="300" width="995" height="110" as="geometry" />
        </mxCell>
        <mxCell id="fpkG0rJU3OVmq5idl9VU-6" value="&lt;span style=&quot;font-family: &amp;quot;Times New Roman&amp;quot;; font-size: 25px;&quot;&gt;Presentation Layer&lt;/span&gt;" style="text;align=center;fontStyle=1;verticalAlign=middle;spacingLeft=3;spacingRight=3;strokeColor=none;rotatable=0;points=[[0,0.5],[1,0.5]];portConstraint=eastwest;html=1;" parent="1" vertex="1">
          <mxGeometry x="185" y="90" width="330" height="190" as="geometry" />
        </mxCell>
        <mxCell id="fpkG0rJU3OVmq5idl9VU-7" value="&lt;span style=&quot;font-family: &amp;quot;Times New Roman&amp;quot;; font-size: 25px;&quot;&gt;Data Access Layer&lt;/span&gt;" style="text;align=center;fontStyle=1;verticalAlign=middle;spacingLeft=3;spacingRight=3;strokeColor=none;rotatable=0;points=[[0,0.5],[1,0.5]];portConstraint=eastwest;html=1;" parent="1" vertex="1">
          <mxGeometry x="180" y="430" width="330" height="190" as="geometry" />
        </mxCell>
        <mxCell id="fpkG0rJU3OVmq5idl9VU-8" value="&lt;span style=&quot;font-family: &amp;quot;Times New Roman&amp;quot;; font-size: 25px;&quot;&gt;Bussines Logic&amp;nbsp; Layer&lt;/span&gt;" style="text;align=center;fontStyle=1;verticalAlign=middle;spacingLeft=3;spacingRight=3;strokeColor=none;rotatable=0;points=[[0,0.5],[1,0.5]];portConstraint=eastwest;html=1;" parent="1" vertex="1">
          <mxGeometry x="185" y="260" width="330" height="190" as="geometry" />
        </mxCell>
        <mxCell id="fpkG0rJU3OVmq5idl9VU-9" value="" style="rounded=1;whiteSpace=wrap;html=1;" parent="1" vertex="1">
          <mxGeometry x="515" y="142.5" width="195" height="85" as="geometry" />
        </mxCell>
        <mxCell id="fpkG0rJU3OVmq5idl9VU-10" value="" style="rounded=1;whiteSpace=wrap;html=1;" parent="1" vertex="1">
          <mxGeometry x="740" y="142.5" width="195" height="85" as="geometry" />
        </mxCell>
        <mxCell id="fpkG0rJU3OVmq5idl9VU-11" value="" style="rounded=1;whiteSpace=wrap;html=1;" parent="1" vertex="1">
          <mxGeometry x="510" y="482.5" width="195" height="85" as="geometry" />
        </mxCell>
        <mxCell id="fpkG0rJU3OVmq5idl9VU-12" value="" style="rounded=1;whiteSpace=wrap;html=1;" parent="1" vertex="1">
          <mxGeometry x="515" y="312.5" width="195" height="85" as="geometry" />
        </mxCell>
        <mxCell id="fpkG0rJU3OVmq5idl9VU-13" value="" style="rounded=1;whiteSpace=wrap;html=1;" parent="1" vertex="1">
          <mxGeometry x="970" y="140" width="195" height="85" as="geometry" />
        </mxCell>
        <mxCell id="fpkG0rJU3OVmq5idl9VU-14" value="" style="rounded=1;whiteSpace=wrap;html=1;" parent="1" vertex="1">
          <mxGeometry x="740" y="482.5" width="195" height="85" as="geometry" />
        </mxCell>
        <mxCell id="fpkG0rJU3OVmq5idl9VU-15" value="" style="rounded=1;whiteSpace=wrap;html=1;" parent="1" vertex="1">
          <mxGeometry x="740" y="312.5" width="195" height="85" as="geometry" />
        </mxCell>
        <mxCell id="fpkG0rJU3OVmq5idl9VU-16" value="" style="rounded=1;whiteSpace=wrap;html=1;" parent="1" vertex="1">
          <mxGeometry x="970" y="482.5" width="195" height="85" as="geometry" />
        </mxCell>
        <mxCell id="fpkG0rJU3OVmq5idl9VU-17" value="" style="rounded=1;whiteSpace=wrap;html=1;" parent="1" vertex="1">
          <mxGeometry x="970" y="312.5" width="195" height="85" as="geometry" />
        </mxCell>
        <mxCell id="fpkG0rJU3OVmq5idl9VU-18" value="&lt;font face=&quot;Times New Roman&quot; style=&quot;font-size: 22px;&quot;&gt;Controllers&lt;/font&gt;" style="text;align=center;fontStyle=1;verticalAlign=middle;spacingLeft=3;spacingRight=3;strokeColor=none;rotatable=0;points=[[0,0.5],[1,0.5]];portConstraint=eastwest;html=1;" parent="1" vertex="1">
          <mxGeometry x="527.5" y="151" width="170" height="68" as="geometry" />
        </mxCell>
        <mxCell id="fpkG0rJU3OVmq5idl9VU-19" value="&lt;font face=&quot;Times New Roman&quot; style=&quot;font-size: 22px;&quot;&gt;Serializers&lt;/font&gt;" style="text;align=center;fontStyle=1;verticalAlign=middle;spacingLeft=3;spacingRight=3;strokeColor=none;rotatable=0;points=[[0,0.5],[1,0.5]];portConstraint=eastwest;html=1;" parent="1" vertex="1">
          <mxGeometry x="750" y="321" width="170" height="68" as="geometry" />
        </mxCell>
        <mxCell id="fpkG0rJU3OVmq5idl9VU-20" value="&lt;font face=&quot;Times New Roman&quot;&gt;&lt;span style=&quot;font-size: 22px;&quot;&gt;Frontend&lt;/span&gt;&lt;/font&gt;" style="text;align=center;fontStyle=1;verticalAlign=middle;spacingLeft=3;spacingRight=3;strokeColor=none;rotatable=0;points=[[0,0.5],[1,0.5]];portConstraint=eastwest;html=1;" parent="1" vertex="1">
          <mxGeometry x="752.5" y="151" width="170" height="68" as="geometry" />
        </mxCell>
        <mxCell id="fpkG0rJU3OVmq5idl9VU-21" value="&lt;span style=&quot;font-family: &amp;quot;Times New Roman&amp;quot;; font-size: 22px;&quot;&gt;Models&lt;/span&gt;" style="text;align=center;fontStyle=1;verticalAlign=middle;spacingLeft=3;spacingRight=3;strokeColor=none;rotatable=0;points=[[0,0.5],[1,0.5]];portConstraint=eastwest;html=1;" parent="1" vertex="1">
          <mxGeometry x="515" y="491" width="170" height="68" as="geometry" />
        </mxCell>
        <mxCell id="fpkG0rJU3OVmq5idl9VU-22" value="&lt;font face=&quot;Times New Roman&quot; style=&quot;font-size: 22px;&quot;&gt;&amp;nbsp;Services&lt;/font&gt;" style="text;align=center;fontStyle=1;verticalAlign=middle;spacingLeft=3;spacingRight=3;strokeColor=none;rotatable=0;points=[[0,0.5],[1,0.5]];portConstraint=eastwest;html=1;" parent="1" vertex="1">
          <mxGeometry x="522.5" y="321" width="170" height="68" as="geometry" />
        </mxCell>
        <mxCell id="fpkG0rJU3OVmq5idl9VU-23" value="&lt;font face=&quot;Times New Roman&quot; style=&quot;font-size: 22px;&quot;&gt;Config&lt;/font&gt;" style="text;align=center;fontStyle=1;verticalAlign=middle;spacingLeft=3;spacingRight=3;strokeColor=none;rotatable=0;points=[[0,0.5],[1,0.5]];portConstraint=eastwest;html=1;" parent="1" vertex="1">
          <mxGeometry x="982.5" y="491" width="170" height="68" as="geometry" />
        </mxCell>
        <mxCell id="fpkG0rJU3OVmq5idl9VU-24" value="&lt;font face=&quot;Times New Roman&quot; style=&quot;font-size: 22px;&quot;&gt;Path Config.&lt;/font&gt;" style="text;align=center;fontStyle=1;verticalAlign=middle;spacingLeft=3;spacingRight=3;strokeColor=none;rotatable=0;points=[[0,0.5],[1,0.5]];portConstraint=eastwest;html=1;" parent="1" vertex="1">
          <mxGeometry x="982.5" y="321" width="170" height="68" as="geometry" />
        </mxCell>
        <mxCell id="fpkG0rJU3OVmq5idl9VU-25" value="&lt;font face=&quot;Times New Roman&quot; style=&quot;font-size: 22px;&quot;&gt;views&lt;/font&gt;" style="text;align=center;fontStyle=1;verticalAlign=middle;spacingLeft=3;spacingRight=3;strokeColor=none;rotatable=0;points=[[0,0.5],[1,0.5]];portConstraint=eastwest;html=1;" parent="1" vertex="1">
          <mxGeometry x="970" y="151" width="170" height="68" as="geometry" />
        </mxCell>
        <mxCell id="fpkG0rJU3OVmq5idl9VU-26" value="&lt;font face=&quot;Times New Roman&quot; style=&quot;font-size: 22px;&quot;&gt;Migrations&lt;/font&gt;" style="text;align=center;fontStyle=1;verticalAlign=middle;spacingLeft=3;spacingRight=3;strokeColor=none;rotatable=0;points=[[0,0.5],[1,0.5]];portConstraint=eastwest;html=1;" parent="1" vertex="1">
          <mxGeometry x="752.5" y="491" width="170" height="68" as="geometry" />
        </mxCell>
      </root>
    </mxGraphModel>
  </diagram>
</mxfile>
